HIERARCHY
ROOT Hips
{
    OFFSET   0.000000   0.000000   0.000000
    CHANNELS 6 Xposition Yposition Zposition Zrotation Xrotation Yrotation
    JOINT Chest
    {
        OFFSET   0.000000   8.007230   0.000000
        CHANNELS 3 Zrotation Xrotation Yrotation
        JOINT Chest2
        {
            OFFSET   0.000000  22.077100   0.000000
            CHANNELS 3 Zrotation Xrotation Yrotation
            JOINT Neck
            {
                OFFSET   0.000000  23.254800   0.000000
                CHANNELS 3 Zrotation Xrotation Yrotation
                JOINT Head
                {
                    OFFSET   0.000010  14.370000   1.956600
                    CHANNELS 3 Zrotation Xrotation Yrotation
                    End Site
                    {
                        OFFSET   0.000000  19.566000   0.000000
                    }
                }
            }
            JOINT LeftCollar
            {
                OFFSET   3.911900  19.017000  -0.467062
                CHANNELS 3 Zrotation Xrotation Yrotation
                JOINT LeftShoulder
                {
                    OFFSET  10.383700   0.000000   0.000000
                    CHANNELS 3 Zrotation Xrotation Yrotation
                    JOINT LeftElbow
                    {
                        OFFSET  26.662100   0.001193   0.000835
                        CHANNELS 3 Zrotation Xrotation Yrotation
                        JOINT LeftWrist
                        {
                            OFFSET  28.869000  -0.000058  -0.000075
                            CHANNELS 3 Zrotation Xrotation Yrotation
                            JOINT LeftFinger0
                            {
                                OFFSET   2.044660  -2.323460   3.252850
                                CHANNELS 3 Zrotation Xrotation Yrotation
                                JOINT LeftFinger01
                                {
                                    OFFSET   3.088130   0.000000   0.000000
                                    CHANNELS 3 Zrotation Xrotation Yrotation
                                    JOINT LeftFinger02
                                    {
                                        OFFSET   2.639450   0.000000   0.000000
                                        CHANNELS 3 Zrotation Xrotation Yrotation
                                        End Site
                                        {
                                            OFFSET   2.582190   0.000000   0.000000
                                        }
                                    }
                                }
                            }
                            JOINT LeftFinger1
                            {
                                OFFSET   8.364480   0.000000   3.252850
                                CHANNELS 3 Zrotation Xrotation Yrotation
                                JOINT LeftFinger11
                                {
                                    OFFSET   4.646920   0.000000   0.000000
                                    CHANNELS 3 Zrotation Xrotation Yrotation
                                    JOINT LeftFinger12
                                    {
                                        OFFSET   2.323460   0.000000   0.000000
                                        CHANNELS 3 Zrotation Xrotation Yrotation
                                        End Site
                                        {
                                            OFFSET   2.273050   0.000000   0.000000
                                        }
                                    }
                                }
                            }
                            JOINT LeftFinger2
                            {
                                OFFSET   8.364490   0.000016   1.078090
                                CHANNELS 3 Zrotation Xrotation Yrotation
                                JOINT LeftFinger21
                                {
                                    OFFSET   5.111620   0.000000   0.000000
                                    CHANNELS 3 Zrotation Xrotation Yrotation
                                    JOINT LeftFinger22
                                    {
                                        OFFSET   2.788150   0.000012   0.000000
                                        CHANNELS 3 Zrotation Xrotation Yrotation
                                        End Site
                                        {
                                            OFFSET   2.727660   0.000000   0.000000
                                        }
                                    }
                                }
                            }
                            JOINT LeftFinger3
                            {
                                OFFSET   7.899780   0.000014  -1.078090
                                CHANNELS 3 Zrotation Xrotation Yrotation
                                JOINT LeftFinger31
                                {
                                    OFFSET   4.646930   0.000000   0.000000
                                    CHANNELS 3 Zrotation Xrotation Yrotation
                                    JOINT LeftFinger32
                                    {
                                        OFFSET   2.323470   0.000000   0.000000
                                        CHANNELS 3 Zrotation Xrotation Yrotation
                                        End Site
                                        {
                                            OFFSET   2.273050   0.000000   0.000000
                                        }
                                    }
                                }
                            }
                            JOINT LeftFinger4
                            {
                                OFFSET   7.435090   0.000000  -3.252850
                                CHANNELS 3 Zrotation Xrotation Yrotation
                                JOINT LeftFinger41
                                {
                                    OFFSET   3.717550   0.000000   0.000000
                                    CHANNELS 3 Zrotation Xrotation Yrotation
                                    JOINT LeftFinger42
                                    {
                                        OFFSET   1.858770   0.000000   0.000000
                                        CHANNELS 3 Zrotation Xrotation Yrotation
                                        End Site
                                        {
                                            OFFSET   1.818440   0.000000   0.000000
                                        }
                                    }
                                }
                            }
                        }
                    }
                }
            }
            JOINT RightCollar
            {
                OFFSET  -3.911900  19.017000  -0.467063
                CHANNELS 3 Zrotation Xrotation Yrotation
                JOINT RightShoulder
                {
                    OFFSET -10.383700   0.000023   0.000000
                    CHANNELS 3 Zrotation Xrotation Yrotation
                    JOINT RightElbow
                    {
                        OFFSET -26.662100   0.001246   0.001011
                        CHANNELS 3 Zrotation Xrotation Yrotation
                        JOINT RightWrist
                        {
                            OFFSET -28.869000  -0.000026  -0.000078
                            CHANNELS 3 Zrotation Xrotation Yrotation
                            JOINT RightFinger0
                            {
                                OFFSET  -2.044660  -2.323490   3.252850
                                CHANNELS 3 Zrotation Xrotation Yrotation
                                JOINT RightFinger01
                                {
                                    OFFSET  -3.088130   0.000000   0.000000
                                    CHANNELS 3 Zrotation Xrotation Yrotation
                                    JOINT RightFinger02
                                    {
                                        OFFSET  -2.639460   0.000000   0.000000
                                        CHANNELS 3 Zrotation Xrotation Yrotation
                                        End Site
                                        {
                                            OFFSET  -2.582190   0.000000   0.000000
                                        }
                                    }
                                }
                            }
                            JOINT RightFinger1
                            {
                                OFFSET  -8.364480   0.000000   3.252850
                                CHANNELS 3 Zrotation Xrotation Yrotation
                                JOINT RightFinger11
                                {
                                    OFFSET  -4.646920   0.000000   0.000000
                                    CHANNELS 3 Zrotation Xrotation Yrotation
                                    JOINT RightFinger12
                                    {
                                        OFFSET  -2.323470   0.000000   0.000000
                                        CHANNELS 3 Zrotation Xrotation Yrotation
                                        End Site
                                        {
                                            OFFSET  -2.273050   0.000000   0.000000
                                        }
                                    }
                                }
                            }
                            JOINT RightFinger2
                            {
                                OFFSET  -8.364480   0.000000   1.078090
                                CHANNELS 3 Zrotation Xrotation Yrotation
                                JOINT RightFinger21
                                {
                                    OFFSET  -5.111620   0.000000   0.000000
                                    CHANNELS 3 Zrotation Xrotation Yrotation
                                    JOINT RightFinger22
                                    {
                                        OFFSET  -2.788160   0.000000   0.000000
                                        CHANNELS 3 Zrotation Xrotation Yrotation
                                        End Site
                                        {
                                            OFFSET  -2.727660   0.000000   0.000000
                                        }
                                    }
                                }
                            }
                            JOINT RightFinger3
                            {
                                OFFSET  -7.899780   0.000000  -1.078090
                                CHANNELS 3 Zrotation Xrotation Yrotation
                                JOINT RightFinger31
                                {
                                    OFFSET  -4.646930   0.000000   0.000000
                                    CHANNELS 3 Zrotation Xrotation Yrotation
                                    JOINT RightFinger32
                                    {
                                        OFFSET  -2.323470   0.000000   0.000000
                                        CHANNELS 3 Zrotation Xrotation Yrotation
                                        End Site
                                        {
                                            OFFSET  -2.273050   0.000000   0.000000
                                        }
                                    }
                                }
                            }
                            JOINT RightFinger4
                            {
                                OFFSET  -7.435090   0.000000  -3.252850
                                CHANNELS 3 Zrotation Xrotation Yrotation
                                JOINT RightFinger41
                                {
                                    OFFSET  -3.717550   0.000000   0.000000
                                    CHANNELS 3 Zrotation Xrotation Yrotation
                                    JOINT RightFinger42
                                    {
                                        OFFSET  -1.858760   0.000000   0.000000
                                        CHANNELS 3 Zrotation Xrotation Yrotation
                                        End Site
                                        {
                                            OFFSET  -1.818440   0.000000   0.000000
                                        }
                                    }
                                }
                            }
                        }
                    }
                }
            }
        }
    }
    JOINT LeftHip
    {
        OFFSET   9.783010   0.000000   0.000000
        CHANNELS 3 Zrotation Xrotation Yrotation
        JOINT LeftKnee
        {
            OFFSET   0.000073 -41.789100   0.001749
            CHANNELS 3 Zrotation Xrotation Yrotation
            JOINT LeftAnkle
            {
                OFFSET   0.000111 -41.133200  -0.000179
                CHANNELS 3 Zrotation Xrotation Yrotation
                JOINT LeftToe
                {
                    OFFSET   0.000000  -6.358960  14.674500
                    CHANNELS 3 Zrotation Xrotation Yrotation
                    End Site
                    {
                        OFFSET   0.000000   0.000000   3.913200
                    }
                }
            }
        }
    }
    JOINT RightHip
    {
        OFFSET  -9.783010   0.000000   0.000000
        CHANNELS 3 Zrotation Xrotation Yrotation
        JOINT RightKnee
        {
            OFFSET   0.000424 -41.789200   0.005205
            CHANNELS 3 Zrotation Xrotation Yrotation
            JOINT RightAnkle
            {
                OFFSET   0.000000 -41.133200  -0.000155
                CHANNELS 3 Zrotation Xrotation Yrotation
                JOINT RightToe
                {
                    OFFSET   0.000000  -6.358960  14.674500
                    CHANNELS 3 Zrotation Xrotation Yrotation
                    End Site
                    {
                        OFFSET   0.000000   0.000000   3.913200
                    }
                }
            }
        }
    }
}
MOTION
Frames: 4
Frame Time:   0.016667
 -1.040840  89.588400  -2.120210  -2.322490  -7.491600  -2.068120   0.816939   2.989380   0.380036   1.617290   5.983840   0.718763   0.356092   1.440280  -0.013033   0.586013   2.920340   2.057220  -2.068870   0.738354   3.347800 -77.368100  13.269500   0.005479  -0.746714  -2.401600 -14.920700  10.617500   0.772867   1.238460  35.935100  25.838000 -54.408600 -32.635100  -0.003209  -0.001987 -11.317500  -0.001293  -0.001782 -28.764300   5.229380  -9.427090 -23.887500   0.003173   0.002257 -16.721200   0.002242  -0.000979 -28.245200  -1.501210   2.792320 -34.030700   0.008563   0.001867 -22.664400   0.002926   0.008875 -28.212500  -1.499610   2.793180 -33.763000   0.002765   0.004812 -22.486100   0.005347   0.003658 -31.749700  -1.669320   2.695240 -47.683300  -0.000695   0.002865 -31.757200  -0.001421   0.001322   5.788510   1.541170   3.961330  74.031400   3.480080  -7.501000  -0.797409  -7.563620   9.838040 -13.421400  -1.807670   1.782100 -35.993800  25.465800  63.246700  28.534500   0.001124  -0.003519   9.267240   0.010704  -0.001940  26.954700   8.634100  16.453400  23.077500  -0.006466   0.006290  16.154200  -0.003126   0.005495  26.853900   4.373580   8.575130  27.754700  -0.001276   0.003839  18.484600   0.007158  -0.000000  27.107700   4.183090   8.122830  28.751800  -0.000379  -0.000617  19.148700   0.015372   0.008917  33.133200   0.651466   0.998418  49.708200  -0.000957   0.008868  33.105700  -0.000648  -0.008486   2.028850   8.952830   3.250950   1.409580   0.100142   2.689050  -1.328220  -2.172540   1.260930   0.000000   0.000000  -0.000000   3.773910   7.354420   0.806141  -2.280390   3.254740  -5.736060  -0.701179  -3.610470  -0.203688  -0.000000   0.000000   0.000000
 -1.047880  89.588300  -2.120090  -2.320080  -7.496040  -2.047780   0.817020   2.989190   0.379962   1.617430   5.983430   0.718612   0.346600   1.464510  -0.013018   0.570407   2.969400   2.055210  -2.085410   0.732592   3.338600 -77.382200  13.276900   0.010555  -0.744334  -2.397170 -14.900300  10.577400   0.746981   1.280100  35.896500  25.789400 -54.416300 -32.651400  -0.003229  -0.001997 -11.325600  -0.001303  -0.001789 -28.761500   5.210800  -9.396950 -23.882800   0.003157   0.002250 -16.717900   0.002238  -0.000983 -28.242200  -1.523170   2.833430 -34.027700   0.008605   0.001829 -22.662400   0.002941   0.008915 -28.209400  -1.521540   2.834300 -33.760000   0.002764   0.004816 -22.484200   0.005369   0.003660 -31.743800  -1.693390   2.735170 -47.676300  -0.000691   0.002887 -31.752500  -0.001431   0.001334   5.789720   1.533070   3.967620  73.980000   3.464870  -7.508380  -0.811888  -7.625950   9.796700 -12.174500  -1.776190   1.964060 -36.137300  25.451900  63.364800  28.193700   0.001128  -0.003517   9.096850   0.010705  -0.001931  26.892000   8.555010  16.354100  23.010400  -0.006469   0.006293  16.107300  -0.003126   0.005496  26.913700   4.282000   8.378910  27.972000  -0.001271   0.003832  18.629400   0.007158  -0.000026  27.154300   4.045450   7.843400  28.901700  -0.000384  -0.000622  19.248500   0.015370   0.008912  33.222100   0.633277   0.966185  49.841000  -0.000962   0.008867  33.194200  -0.000652  -0.008482   2.039820   8.953970   3.249350   1.403400   0.098946   2.695590  -1.333870  -2.166560   1.235130   0.000000   0.000000  -0.000000   3.769910   7.388560   0.802483  -2.268680   3.211930  -5.760970  -0.707246  -3.600600  -0.193357  -0.000000   0.000000   0.000000
 -1.059480  89.588300  -2.119920  -2.316270  -7.503360  -2.015720   0.817101   2.988930   0.379888   1.617630   5.982960   0.718461   0.331300   1.499130  -0.012993   0.545258   3.039500   2.050260  -2.111380   0.722092   3.321550 -77.404000  13.294900   0.016923  -0.741525  -2.392840 -14.869500  10.491400   0.721088   1.350090  35.861400  25.726800 -54.449800 -32.667700  -0.003276  -0.002034 -11.333800  -0.001324  -0.001816 -28.749900   5.192220  -9.366810 -23.871000   0.003121   0.002236 -16.709700   0.002231  -0.000993 -28.236700  -1.545120   2.874540 -34.007200   0.008710   0.001733 -22.648800   0.002978   0.009015 -28.203900  -1.543470   2.875430 -33.740800   0.002763   0.004826 -22.471400   0.005422   0.003666 -31.729400  -1.717450   2.775090 -47.656500  -0.000684   0.002935 -31.739300  -0.001452   0.001359   5.793510   1.518410   3.977460  73.897000   3.439800  -7.518370  -0.837073  -7.722760   9.756170 -10.163600  -1.689500   2.254190 -36.406700  25.480600  63.523800  27.643000   0.001132  -0.003506   8.821520   0.010706  -0.001912  26.761700   8.409030  16.177700  22.875600  -0.006476   0.006300  16.012900  -0.003126   0.005500  26.993200   4.120680   8.041400  28.189400  -0.001258   0.003817  18.774200   0.007158  -0.000072  27.223100   3.818810   7.389520  29.051500  -0.000395  -0.000633  19.348300   0.015365   0.008897  33.310900   0.615087   0.933951  49.973900  -0.000975   0.008864  33.282600  -0.000660  -0.008473   2.056710   8.958530   3.245160   1.394280   0.090578   2.705050  -1.343390  -2.152730   1.197240   0.000000   0.000000   0.000000   3.762680   7.445150   0.795687  -2.247510   3.137230  -5.801900  -0.717870  -3.580580  -0.174118  -0.000000   0.000000   0.000000
 -1.068320  89.588300  -2.119790  -2.313530  -7.509500  -1.992760   0.817036   2.988860   0.381015   1.617470   5.982890   0.720721   0.319916   1.515500  -0.012973   0.526524   3.072780   2.040460  -2.128760   0.711247   3.302980 -77.419000  13.322200   0.018222  -0.748903  -2.421280 -14.848700  10.375000   0.726995   1.412020  35.849400  25.705900 -54.522200 -32.665800  -0.003351  -0.002130 -11.332800  -0.001350  -0.001871 -28.727300   5.199490  -9.386630 -23.853800   0.003073   0.002219 -16.697600   0.002222  -0.001010 -28.230800  -1.532050   2.850820 -33.955200   0.008870   0.001589 -22.614200   0.003035   0.009169 -28.198300  -1.530430   2.851690 -33.692800   0.002765   0.004840 -22.439500   0.005500   0.003676 -31.708300  -1.702370   2.752570 -47.623800  -0.000681   0.003002 -31.717400  -0.001480   0.001396   5.800240   1.503400   3.983140  73.832800   3.415610  -7.521470  -0.860514  -7.799180   9.760240  -8.641340  -1.539250   2.487130 -36.700600  25.614400  63.581800  27.230600   0.001126  -0.003484   8.615330   0.010703  -0.001887  26.608200   8.252790  15.983100  22.719200  -0.006485   0.006306  15.903400  -0.003130   0.005509  27.015200   3.961630   7.724220  28.163500  -0.001237   0.003796  18.756900   0.007157  -0.000116  27.231600   3.630730   7.023960  28.948800  -0.000407  -0.000649  19.279900   0.015354   0.008873  33.230400   0.632110   0.962651  49.853600  -0.000995   0.008860  33.202500  -0.000673  -0.008457   2.067420   8.970260   3.237770   1.388470   0.067194   2.710140  -1.351530  -2.132570   1.175760  -0.000000   0.000000  -0.000000   3.755130   7.493220   0.788110  -2.225850   3.066190  -5.835160  -0.727648  -3.556030  -0.153224  -0.000000   0.000000   0.000000
